<svg xmlns="http://www.w3.org/2000/svg" width="1024" height="1024" viewBox="0 0 1024 1024" fill="none">
  <rect width="1024" height="1024" rx="220" fill="#1976D2"/>
  <circle cx="512" cy="512" r="380" fill="#1565C0" opacity="0.35"/>
  <path d="M762 680L680 598C712 562 732 514 732 462C732 342 635 245 515 245C395 245 298 342 298 462C298 582 395 679 515 679C553 679 589 669 620 652L702 734C712 744 728 744 738 734C748 724 748 708 738 698L762 680ZM515 612C432 612 365 545 365 462C365 379 432 312 515 312C598 312 665 379 665 462C665 545 598 612 515 612Z" fill="white"/>
  <path d="M515 358C488 358 466 380 466 407C466 434 488 456 515 456C542 456 564 434 564 407C564 380 542 358 515 358Z" fill="white"/>
  <path d="M515 520C472 520 388 526 388 568V592H642V568C642 526 558 520 515 520Z" fill="#FFC107"/>
  <path d="M248 720H776C800 720 820 740 820 764V780C820 804 800 824 776 824H248C224 824 204 804 204 780V764C204 740 224 720 248 720Z" fill="#0D47A1" opacity="0.9"/>
  <rect x="268" y="748" width="488" height="48" rx="12" fill="#E3F2FD" opacity="0.25"/>
</svg>
