
<svg xmlns="http://www.w3.org/2000/svg" width="100" height="100" viewBox="0 0 100 100" fill="none">
  <rect width="100" height="100" rx="20" fill="#1976D2"/>
  <path d="M74.5 66.5L65 56C70 51 73 44 73 36.5C73 21.9 61.1 10 46.5 10C31.9 10 20 21.9 20 36.5C20 51.1 31.9 63 46.5 63C54 63 61 60 66 55L75.5 65.5C76.5 66.5 78.5 66.5 79.5 65.5C80.5 64.5 80.5 62.5 79.5 61.5L74.5 66.5ZM46.5 56C35.8 56 27 47.2 27 36.5C27 25.8 35.8 17 46.5 17C57.2 17 66 25.8 66 36.5C66 47.2 57.2 56 46.5 56Z" fill="white"/>
  <path d="M46.5 25C42.9 25 40 27.9 40 31.5C40 35.1 42.9 38 46.5 38C50.1 38 53 35.1 53 31.5C53 27.9 50.1 25 46.5 25Z" fill="white"/>
  <path d="M46.5 47C41.8 47 33 49.4 33 54V56H60V54C60 49.4 51.2 47 46.5 47Z" fill="#FFC107"/>
</svg>
